<mxfile host="app.diagrams.net" modified="2023-10-27T15:50:19.642Z" agent="Mozilla/5.0 (X11; Linux x86_64) AppleWebKit/537.36 (KHTML, like Gecko) Chrome/117.0.0.0 Safari/537.36" etag="Fcea3bJLr-9-PqOClrBm" version="22.0.8" type="github">
  <diagram name="Page-1" id="dOoMdrRcAL83eRhSxtcQ">
    <mxGraphModel dx="489" dy="259" grid="1" gridSize="10" guides="1" tooltips="1" connect="1" arrows="1" fold="1" page="1" pageScale="1" pageWidth="850" pageHeight="1100" math="0" shadow="0">
      <root>
        <mxCell id="0" />
        <mxCell id="1" parent="0" />
        <mxCell id="fMgBwd1XF2c80oSfQm5B-2" value="" style="edgeStyle=orthogonalEdgeStyle;rounded=0;orthogonalLoop=1;jettySize=auto;html=1;labelBackgroundColor=none;strokeColor=#A8201A;fontColor=default;" edge="1" parent="1" source="OjKGZ6mGzWniDmZjbDa7-1" target="fMgBwd1XF2c80oSfQm5B-1">
          <mxGeometry relative="1" as="geometry" />
        </mxCell>
        <mxCell id="OjKGZ6mGzWniDmZjbDa7-1" value="Admin" style="shape=umlActor;verticalLabelPosition=bottom;verticalAlign=top;html=1;outlineConnect=0;labelBackgroundColor=none;fillColor=#FAE5C7;strokeColor=#0F8B8D;fontColor=#143642;" parent="1" vertex="1">
          <mxGeometry x="70" y="230" width="30" height="60" as="geometry" />
        </mxCell>
        <mxCell id="fMgBwd1XF2c80oSfQm5B-1" value="&lt;b&gt;&lt;font face=&quot;Courier New&quot;&gt;Create Voting Event&lt;/font&gt;&lt;/b&gt;" style="whiteSpace=wrap;html=1;verticalAlign=top;fillColor=#FAE5C7;strokeColor=#0F8B8D;labelBackgroundColor=none;fontColor=#143642;" vertex="1" parent="1">
          <mxGeometry x="200" y="240" width="120" height="40" as="geometry" />
        </mxCell>
      </root>
    </mxGraphModel>
  </diagram>
</mxfile>
